<?xml version="1.0" standalone="no"?>
<!DOCTYPE svg PUBLIC "-//W3C//DTD SVG 20010904//EN"
 "http://www.w3.org/TR/2001/REC-SVG-20010904/DTD/svg10.dtd">
<svg version="1.0" xmlns="http://www.w3.org/2000/svg"
 width="3221.000000pt" height="2597.000000pt" viewBox="0 0 3221.000000 2597.000000"
 preserveAspectRatio="xMidYMid meet">

<g transform="translate(0.000000,2597.000000) scale(0.100000,-0.100000)"
fill="#000000" stroke="none">
<path d="M26200 24879 c-505 -9 -478 -7 -1243 -90 -2084 -226 -3771 -529
-5327 -955 -1072 -294 -2061 -663 -2675 -998 -104 -57 -228 -123 -275 -145
-90 -44 -238 -142 -435 -286 -147 -107 -292 -203 -363 -240 -51 -27 -55 -27
-86 -13 -32 16 -43 31 -127 163 -83 131 -286 312 -524 467 -630 411 -1685 825
-2835 1113 -463 115 -760 175 -1405 279 -220 36 -503 83 -630 105 -490 85
-963 122 -1774 141 -1004 24 -2034 -29 -2761 -140 -496 -77 -693 -115 -969
-190 -207 -57 -271 -83 -287 -120 -41 -92 -65 -128 -139 -212 -101 -115 -243
-241 -307 -274 -51 -26 -63 -51 -92 -189 -21 -99 -42 -144 -89 -187 l-42 -38
3 -125 c3 -131 -8 -339 -34 -610 -72 -771 -98 -1214 -144 -2455 -64 -1727
-116 -2703 -180 -3425 -54 -595 -70 -826 -80 -1100 -9 -248 -26 -511 -65 -980
-40 -492 -71 -1058 -100 -1820 -23 -600 -54 -1325 -65 -1520 -6 -93 -19 -352
-30 -575 -32 -628 -73 -1256 -85 -1300 -11 -38 -27 -264 -50 -715 -14 -269
-34 -598 -45 -730 -33 -404 -43 -600 -44 -850 -1 -270 -2 -268 76 -341 24 -23
79 -60 122 -83 92 -48 202 -127 359 -254 150 -121 192 -147 240 -147 23 0 54
-9 73 -21 56 -34 89 -39 162 -24 37 8 229 37 427 65 198 28 554 80 790 115
908 135 1394 192 2045 237 288 20 1179 17 1450 -5 610 -50 1147 -133 1831
-282 675 -148 1239 -326 1871 -589 568 -237 1373 -668 1373 -736 0 -23 -72
-42 -127 -35 -42 6 -51 12 -75 48 -48 72 -168 120 -783 312 -965 303 -1405
421 -1885 509 -622 114 -1463 191 -2600 238 -381 15 -1535 15 -1820 0 -693
-38 -1531 -109 -2377 -201 -624 -68 -706 -75 -988 -75 -251 -1 -267 0 -312 21
-25 11 -53 32 -62 45 -33 51 -142 440 -182 653 -21 113 -23 294 -6 650 14 312
28 824 42 1590 15 819 29 1334 45 1715 8 190 22 527 30 750 22 587 58 1204
110 1875 26 334 89 1209 105 1450 12 186 38 1261 65 2755 60 3257 78 3606 225
4218 91 382 187 889 209 1104 14 141 -11 223 -96 318 -60 66 -75 74 -111 56
-81 -42 -194 -205 -360 -523 -134 -256 -165 -287 -222 -225 -36 40 -96 56
-185 49 -103 -8 -186 -38 -241 -85 -53 -47 -119 -82 -155 -82 -37 0 -107 -48
-200 -137 -123 -117 -209 -238 -209 -293 0 -28 -40 -66 -90 -86 -47 -19 -67
-51 -76 -121 -7 -49 -41 -123 -56 -123 -18 0 -49 -92 -63 -187 -13 -94 -23
-225 -45 -623 -6 -102 -15 -229 -20 -283 -14 -139 -28 -879 -40 -2092 -18
-1841 -40 -3605 -60 -4790 -10 -565 -17 -884 -40 -1855 -25 -1048 -48 -2487
-81 -5120 -18 -1415 -5 -1719 78 -1847 35 -55 74 -78 204 -122 198 -66 232
-92 302 -226 54 -102 74 -113 234 -125 296 -23 484 -8 803 65 344 79 751 139
1645 240 171 20 454 53 630 75 822 100 1401 139 2387 161 691 16 1439 1 2138
-41 752 -46 1880 -164 2545 -266 430 -66 660 -121 704 -168 22 -23 22 -28 16
-148 -9 -143 4 -211 58 -311 38 -72 142 -178 220 -225 141 -85 322 -142 513
-162 161 -18 1779 -25 2464 -11 813 16 1303 37 1435 62 152 28 434 242 571
435 70 99 147 132 509 223 1274 319 2552 530 3880 641 1035 86 2096 112 3625
91 1583 -22 2456 -63 2700 -126 30 -8 97 -19 148 -25 87 -10 97 -9 167 15 186
62 380 183 417 260 12 24 28 47 35 49 7 3 29 -4 48 -16 28 -16 47 -19 90 -16
73 6 126 44 171 122 20 34 57 81 83 106 41 39 51 57 74 130 37 118 56 217 68
343 10 112 24 162 53 186 10 8 29 37 42 64 21 41 26 70 34 195 22 339 40 1275
60 3077 13 1165 26 1890 45 2480 8 259 22 715 30 1015 18 644 32 1013 45 1205
37 547 57 1269 80 2970 53 3910 61 5436 29 5550 -13 47 -17 51 -92 93 -108 59
-275 173 -314 213 -43 45 -63 97 -63 161 0 117 -63 175 -202 185 -79 5 -447
-29 -563 -52 -110 -23 -104 -5 -115 -341 -5 -159 -14 -944 -19 -1744 -13
-1949 -20 -2665 -31 -3485 -19 -1290 -36 -1970 -80 -3050 -16 -401 -39 -1062
-55 -1590 -16 -549 -26 -786 -55 -1430 -34 -735 -41 -1167 -46 -2875 l-5
-1655 -51 -130 c-98 -249 -188 -402 -300 -512 l-63 -61 -315 28 c-566 51 -795
62 -1640 81 -738 16 -2514 7 -2795 -15 -934 -72 -1678 -157 -2198 -252 -412
-75 -1594 -355 -2025 -479 -330 -95 -1483 -488 -1794 -611 -186 -74 -206 -72
-150 17 61 94 176 177 417 299 591 300 1556 609 2480 795 1643 330 3089 461
4710 427 844 -18 1038 -29 1923 -102 485 -41 640 -47 703 -30 20 6 79 39 133
74 53 35 142 87 197 117 135 71 179 116 241 249 29 60 61 115 79 130 34 30
137 267 174 400 13 47 32 105 43 130 16 35 23 82 31 220 24 390 49 1416 81
3340 6 338 15 878 20 1200 6 322 13 1010 15 1530 4 681 9 1004 20 1155 36 520
67 1947 105 4840 18 1331 24 3750 11 4020 -14 281 -33 438 -59 497 -10 24 -51
81 -90 128 -39 47 -99 132 -133 190 -134 226 -170 272 -252 318 -67 38 -95 69
-132 145 -61 126 -151 151 -610 167 -293 11 -630 10 -1295 -1z m1175 -1266
l30 -10 -27 -6 c-93 -24 -828 -31 -1062 -11 -101 9 -63 22 96 33 166 12 922 7
963 -6z m37 -255 c20 -9 41 -26 47 -37 34 -63 34 -624 1 -2321 -26 -1345 -42
-1916 -65 -2405 -48 -1009 -90 -2491 -115 -4025 -13 -786 -28 -1346 -40 -1520
-9 -120 -29 -626 -45 -1100 -19 -566 -27 -771 -40 -985 -14 -237 -26 -651 -45
-1650 -18 -911 -40 -1433 -63 -1447 -23 -15 -160 -8 -334 17 -397 57 -717 75
-1333 75 -1095 0 -2268 -90 -3290 -251 -1188 -187 -2588 -507 -3386 -774 -557
-185 -1172 -442 -1714 -716 -302 -152 -475 -252 -703 -405 -210 -142 -263
-156 -301 -77 -21 44 -42 200 -51 378 -20 424 -39 666 -60 795 -21 127 -55
546 -105 1285 -65 965 -132 1490 -190 1490 -24 0 -28 -43 -29 -340 -1 -173 -5
-274 -11 -265 -12 22 -35 197 -65 495 -48 479 -88 705 -146 822 -37 77 -69 92
-105 50 -13 -15 -25 -27 -27 -27 -2 0 -7 28 -10 63 -7 75 -15 97 -33 97 -33 0
-72 -127 -99 -319 -8 -63 -17 -116 -19 -118 -1 -2 -9 30 -16 69 -28 162 -54
238 -80 238 -108 0 -180 -1160 -180 -2901 0 -682 -9 -1239 -19 -1239 -3 0 -51
39 -106 86 -55 47 -147 114 -205 148 -311 185 -865 458 -1297 638 -503 209
-1381 481 -2183 677 -666 163 -1145 232 -1970 283 -268 17 -1432 17 -1835 0
-377 -16 -1043 -92 -1650 -188 -357 -57 -493 -74 -615 -81 -98 -5 -117 -3
-129 10 -29 35 -23 164 28 687 81 822 104 1163 131 1945 12 330 26 589 40 720
16 152 34 504 50 970 20 581 40 940 85 1520 37 481 45 624 55 1050 5 215 12
422 15 460 8 102 61 1074 85 1540 69 1393 102 2399 150 4610 24 1121 29 1249
43 1303 8 30 22 61 30 69 52 52 544 100 1397 135 191 8 655 13 1240 13 1280 0
1398 -8 2240 -156 2087 -367 3597 -921 4416 -1620 171 -147 200 -190 190 -287
-6 -53 -4 -69 13 -95 35 -57 41 -186 50 -1002 14 -1151 36 -2142 51 -2253 5
-35 19 -82 31 -105 20 -40 21 -50 15 -217 -7 -158 -5 -183 14 -255 38 -146
113 -238 248 -303 94 -45 136 -49 247 -23 214 51 323 97 379 163 60 69 79 167
91 458 11 269 45 902 70 1300 13 217 27 490 30 605 7 250 18 390 50 625 40
295 55 465 65 727 5 138 12 264 16 280 23 95 67 136 292 270 271 162 602 321
1106 533 387 162 1267 510 1431 566 643 219 2381 662 3330 848 1525 299 2851
419 4525 412 323 -1 380 -4 412 -18z"/>
<path d="M24913 20861 c-18 -5 -59 -28 -90 -52 -416 -313 -2046 -1985 -3028
-3104 -445 -507 -1276 -1542 -1747 -2175 -469 -630 -1343 -1964 -1668 -2545
-128 -230 -223 -365 -257 -365 -22 0 -91 69 -157 159 -34 47 -141 201 -236
341 -535 787 -1215 1659 -1541 1976 -155 150 -380 306 -527 367 -127 51 -245
46 -476 -19 -100 -28 -135 -44 -186 -85 -19 -15 -73 -47 -120 -70 -171 -84
-361 -235 -402 -316 -22 -46 -23 -57 -22 -258 2 -177 5 -222 23 -290 30 -116
118 -285 307 -585 255 -406 606 -993 989 -1655 1010 -1742 1252 -2145 1420
-2360 70 -90 238 -256 349 -344 l74 -59 134 -6 c156 -8 342 -30 430 -51 190
-45 329 5 503 180 202 202 404 517 912 1418 931 1652 1319 2317 1776 3042
1123 1780 2288 3418 3622 5090 500 627 632 815 684 971 35 102 49 212 37 279
-5 23 -23 52 -51 81 -24 25 -67 92 -97 147 -33 63 -75 125 -110 163 -52 55
-65 63 -130 82 -40 12 -98 26 -129 31 -83 15 -249 21 -286 12z m-483 -1990 c0
-11 -75 -77 -105 -93 -20 -11 -20 -11 0 13 64 79 105 109 105 80z m-140 -167
c0 -30 -87 -104 -122 -104 -18 0 -18 2 -4 21 8 12 36 37 62 55 45 33 64 41 64
28z"/>
</g>
</svg>
